<?xml version="1.0" encoding="UTF-8"?><svg xmlns="http://www.w3.org/2000/svg" xmlns:xlink="http://www.w3.org/1999/xlink" fill-opacity="1" color-rendering="auto" color-interpolation="auto" text-rendering="auto" stroke="black" stroke-linecap="square" width="607" stroke-miterlimit="10" shape-rendering="auto" stroke-opacity="1" fill="black" stroke-dasharray="none" font-weight="normal" stroke-width="1" height="187" font-family="'Dialog'" font-style="normal" stroke-linejoin="miter" font-size="12px" stroke-dashoffset="0" image-rendering="auto">
  <!--Generated by ySVG 2.5-->
  <defs id="genericDefs"/>
  <g>
    <defs id="defs1">
      <clipPath clipPathUnits="userSpaceOnUse" id="clipPath1">
        <path d="M0 0 L607 0 L607 187 L0 187 L0 0 Z"/>
      </clipPath>
      <clipPath clipPathUnits="userSpaceOnUse" id="clipPath2">
        <path d="M389 449 L996 449 L996 636 L389 636 L389 449 Z"/>
      </clipPath>
    </defs>
    <g text-rendering="geometricPrecision" stroke-miterlimit="1.45" shape-rendering="geometricPrecision" transform="matrix(1,0,0,1,-389,-449)" stroke-linecap="butt">
      <rect x="637.7134" y="534.1635" clip-path="url(#clipPath2)" fill="none" width="342.7666" rx="4" ry="4" height="86.1405"/>
    </g>
    <g text-rendering="geometricPrecision" stroke-miterlimit="1.45" shape-rendering="geometricPrecision" font-family="'Helvetica Neue'" transform="matrix(1,0,0,1,-389,-449)" stroke-linecap="butt">
      <text x="643.7134" xml:space="preserve" y="551.5875" clip-path="url(#clipPath2)" stroke="none">(Platform) Service Management</text>
      <rect x="406.0263" y="464.5114" clip-path="url(#clipPath2)" fill="none" width="574.4537" rx="4" ry="4" height="54.32"/>
      <text x="412.0263" xml:space="preserve" y="481.9354" clip-path="url(#clipPath2)" stroke="none">General Management</text>
      <rect x="404.6214" y="534.1635" clip-path="url(#clipPath2)" fill="none" width="221.2882" rx="4" ry="4" height="86.1405"/>
      <text x="410.6214" xml:space="preserve" y="551.5875" clip-path="url(#clipPath2)" stroke="none">Application DevOps</text>
    </g>
    <g fill="rgb(255,255,153)" text-rendering="geometricPrecision" shape-rendering="geometricPrecision" transform="matrix(1,0,0,1,-389,-449)" stroke="rgb(255,255,153)">
      <rect x="421.6553" width="86.0581" height="27.44" y="581.4057" clip-path="url(#clipPath2)" stroke="none"/>
    </g>
    <g text-rendering="geometricPrecision" stroke-miterlimit="1.45" shape-rendering="geometricPrecision" transform="matrix(1,0,0,1,-389,-449)" stroke-linecap="butt">
      <rect fill="none" x="421.6553" width="86.0581" height="27.44" y="581.4057" clip-path="url(#clipPath2)"/>
      <text x="427.6553" xml:space="preserve" y="599.0073" clip-path="url(#clipPath2)" font-family="sans-serif" stroke="none">Develop</text>
    </g>
    <g fill="rgb(255,255,153)" text-rendering="geometricPrecision" shape-rendering="geometricPrecision" transform="matrix(1,0,0,1,-389,-449)" stroke="rgb(255,255,153)">
      <rect x="649.9795" width="161.76" height="27.44" y="482.389" clip-path="url(#clipPath2)" stroke="none"/>
    </g>
    <g text-rendering="geometricPrecision" stroke-miterlimit="1.45" shape-rendering="geometricPrecision" transform="matrix(1,0,0,1,-389,-449)" stroke-linecap="butt">
      <rect fill="none" x="649.9795" width="161.76" height="27.44" y="482.389" clip-path="url(#clipPath2)"/>
      <text x="655.9794" xml:space="preserve" y="499.9906" clip-path="url(#clipPath2)" font-family="sans-serif" stroke="none">Architecture Management</text>
    </g>
    <g fill="rgb(255,255,153)" text-rendering="geometricPrecision" shape-rendering="geometricPrecision" transform="matrix(1,0,0,1,-389,-449)" stroke="rgb(255,255,153)">
      <rect x="667.9795" width="143.76" height="42.44" y="567.4537" clip-path="url(#clipPath2)" stroke="none"/>
    </g>
    <g text-rendering="geometricPrecision" stroke-miterlimit="1.45" shape-rendering="geometricPrecision" transform="matrix(1,0,0,1,-389,-449)" stroke-linecap="butt">
      <rect fill="none" x="667.9795" width="143.76" height="42.44" y="567.4537" clip-path="url(#clipPath2)"/>
      <text x="673.9794" xml:space="preserve" y="585.0552" clip-path="url(#clipPath2)" font-family="sans-serif" stroke="none">Monitoring and Event </text>
      <text x="673.9794" xml:space="preserve" y="599.188" clip-path="url(#clipPath2)" font-family="sans-serif" stroke="none">Management</text>
    </g>
    <g fill="rgb(255,255,153)" text-rendering="geometricPrecision" shape-rendering="geometricPrecision" transform="matrix(1,0,0,1,-389,-449)" stroke="rgb(255,255,153)">
      <rect x="822.4792" width="144.4497" height="27.44" y="548.8314" clip-path="url(#clipPath2)" stroke="none"/>
    </g>
    <g text-rendering="geometricPrecision" stroke-miterlimit="1.45" shape-rendering="geometricPrecision" transform="matrix(1,0,0,1,-389,-449)" stroke-linecap="butt">
      <rect fill="none" x="822.4792" width="144.4497" height="27.44" y="548.8314" clip-path="url(#clipPath2)"/>
      <text x="828.4792" xml:space="preserve" y="566.433" clip-path="url(#clipPath2)" font-family="sans-serif" stroke="none">Incident Management</text>
    </g>
    <g fill="rgb(255,255,153)" text-rendering="geometricPrecision" shape-rendering="geometricPrecision" transform="matrix(1,0,0,1,-389,-449)" stroke="rgb(255,255,153)">
      <rect x="521.6553" width="86.0581" height="27.44" y="581.4057" clip-path="url(#clipPath2)" stroke="none"/>
    </g>
    <g text-rendering="geometricPrecision" stroke-miterlimit="1.45" shape-rendering="geometricPrecision" transform="matrix(1,0,0,1,-389,-449)" stroke-linecap="butt">
      <rect fill="none" x="521.6553" width="86.0581" height="27.44" y="581.4057" clip-path="url(#clipPath2)"/>
      <text x="527.6553" xml:space="preserve" y="599.0073" clip-path="url(#clipPath2)" font-family="sans-serif" stroke="none">Operate</text>
    </g>
    <g fill="rgb(255,255,153)" text-rendering="geometricPrecision" shape-rendering="geometricPrecision" transform="matrix(1,0,0,1,-389,-449)" stroke="rgb(255,255,153)">
      <rect x="822.4792" width="144.4497" height="27.44" y="582.4388" clip-path="url(#clipPath2)" stroke="none"/>
    </g>
    <g text-rendering="geometricPrecision" stroke-miterlimit="1.45" shape-rendering="geometricPrecision" transform="matrix(1,0,0,1,-389,-449)" stroke-linecap="butt">
      <rect fill="none" x="822.4792" width="144.4497" height="27.44" y="582.4388" clip-path="url(#clipPath2)"/>
      <text x="828.4792" xml:space="preserve" y="600.0404" clip-path="url(#clipPath2)" font-family="sans-serif" stroke="none">Problem Management</text>
    </g>
  </g>
</svg>
