<?xml version="1.0" encoding="UTF-8"?>
<!DOCTYPE svg PUBLIC "-//W3C//DTD SVG 1.1//EN" "http://www.w3.org/Graphics/SVG/1.1/DTD/svg11.dtd">
<svg version="1.1" xmlns="http://www.w3.org/2000/svg" xmlns:xlink="http://www.w3.org/1999/xlink" x="0" y="0" width="170.079" height="85.039" viewBox="0, 0, 170.079, 85.039">
  <g id="Layer_1">
    <path d="M85.037,82.289 L85.042,82.289 L85.037,82.289 L85.037,82.289 z" fill="#FFFFFF"/>
    <path d="M-335.906,-255.12 z" fill="#252565"/>
    <path d="M8.11,76.637 C9.179,34.606 44.072,3.498 85.039,2.462 C125.598,2.6 160.934,35.661 161.969,76.637 L161.969,82.289 L8.153,82.289 L8.153,76.637 L8.11,76.637 z" fill="#9B9B9B"/>
    <path d="M36.414,82.289 C22.964,82.289 12.06,71.577 12.06,58.363 C12.546,45.698 20.335,37.282 32.781,34.789 C34.249,25.785 41.76,19.982 50.818,19.532 C52.905,19.636 52.079,19.503 53.319,19.751 C60.192,9.088 71.891,3.117 84.606,2.801 C99.343,2.872 112.91,11.602 118.66,24.963 C122.47,24.199 120.523,24.445 124.502,24.247 C140.817,24.247 154.042,37.241 154.042,53.268 C154.042,69.296 140.817,82.289 124.502,82.289 L124.345,82.281 L124.345,82.289 L36.414,82.289 z" fill="#707070"/>
    <path d="M57.131,82.577 C57.162,81.789 57.178,80.549 57.178,79.449 C57.178,72.308 55.926,67.04 53.256,64.172 C51.875,63.89 50.287,63.289 49.401,62.774 C48.029,60.9 43.809,51.809 43.809,46.68 C43.809,41.86 47.04,38.657 52.51,38.657 C54.32,38.657 58.092,39.276 59.808,39.745 C60.739,37.606 62.824,36.221 66.493,36.221 C70.674,36.221 77.867,38.377 77.867,40.515 C77.867,41.031 77.457,41.301 77.034,41.301 C76.703,41.301 74.818,40.84 72.803,40.84 C69.716,40.84 67.986,42.35 67.986,46.737 C67.986,56.861 72.018,67.144 78.197,67.144 C80.705,67.144 83.164,65.734 83.164,61.135 C81.898,61.011 78.337,60.217 76.9,58.932 L82.367,38.767 C79.814,37.712 78.015,35.19 78.015,32.244 C78.015,28.977 80.228,26.227 83.232,25.426 C83.232,25.211 83.269,25.148 83.301,25.013 C83.33,24.88 84.23,20.734 84.23,20.528 C84.025,20.528 79.795,21.43 79.66,21.461 C79.526,21.491 79.446,21.53 79.232,21.53 C78.424,21.53 77.769,20.465 77.769,19.716 C77.769,18.969 78.424,17.903 79.232,17.903 C79.446,17.903 79.526,17.94 79.66,17.973 C79.795,18.002 84.025,18.907 84.23,18.907 C84.23,18.7 83.33,14.881 83.301,14.746 C83.269,14.611 83.232,14.53 83.232,14.315 C83.232,13.502 84.293,12.845 85.039,12.845 C85.783,12.845 86.847,13.502 86.847,14.315 C86.847,14.53 86.81,14.611 86.779,14.746 C86.748,14.881 85.847,18.7 85.847,18.907 C86.054,18.907 90.283,18.002 90.418,17.973 C90.554,17.94 90.633,17.903 90.847,17.903 C91.656,17.903 92.31,18.969 92.31,19.716 C92.31,20.465 91.656,21.53 90.847,21.53 C90.633,21.53 90.554,21.491 90.418,21.461 C90.283,21.43 86.054,20.528 85.847,20.528 C85.847,20.734 86.748,24.88 86.779,25.013 C86.81,25.148 86.847,25.211 86.847,25.426 C89.851,26.227 92.064,28.977 92.064,32.244 C92.064,35.19 90.265,37.712 87.711,38.767 L93.179,58.932 C91.742,60.217 88.181,61.011 86.916,61.135 C86.916,65.734 89.375,67.144 91.881,67.144 C98.062,67.144 102.094,56.861 102.094,46.737 C102.094,42.35 100.363,40.84 97.277,40.84 C95.261,40.84 93.377,41.301 93.047,41.301 C92.623,41.301 92.213,41.031 92.213,40.515 C92.213,38.377 99.406,36.221 103.588,36.221 C107.256,36.221 109.34,37.606 110.271,39.745 C111.988,39.276 115.76,38.657 117.57,38.657 C123.039,38.657 126.269,41.86 126.269,46.68 C126.269,51.809 122.051,60.9 120.679,62.774 C119.793,63.289 118.203,63.89 116.824,64.172 C114.152,67.04 112.902,72.308 112.902,79.449 C112.902,80.549 112.916,81.789 112.949,82.577 L57.131,82.577 z M57.028,42.157 C54.022,42.157 52.043,43.073 52.043,47.352 C52.043,49.89 56.936,67.924 64.188,67.924 C66.939,67.924 68.089,66.536 68.089,63.689 C68.089,63.032 67.955,62.478 67.557,61.857 C66.269,61.612 64.302,60.861 63.254,60.058 C61.516,56.888 59.123,50.451 59.123,44.412 C59.123,43.653 59.157,43.069 59.24,42.373 C58.408,42.241 57.418,42.157 57.028,42.157 z M113.05,42.157 C112.662,42.157 111.669,42.241 110.839,42.372 C110.921,43.069 110.956,43.654 110.956,44.412 C110.956,50.451 108.564,56.887 106.826,60.058 C105.777,60.861 103.812,61.612 102.523,61.857 C102.124,62.477 101.99,63.032 101.99,63.689 C101.99,66.537 103.14,67.924 105.892,67.924 C113.144,67.924 118.037,49.891 118.037,47.352 C118.037,43.072 116.058,42.157 113.05,42.157 z" fill="#FF0000"/>
  </g>
</svg>
