<?xml version="1.0" encoding="UTF-8"?>
<!DOCTYPE svg PUBLIC "-//W3C//DTD SVG 1.1//EN" "http://www.w3.org/Graphics/SVG/1.1/DTD/svg11.dtd">
<svg version="1.1" xmlns="http://www.w3.org/2000/svg" xmlns:xlink="http://www.w3.org/1999/xlink" x="0" y="0" width="155" height="80" viewBox="0, 0, 155, 80">
  <g id="Layer_1">
    <path id="bue" d="M0,75 C0,32.192 36.228,0 75,0 C118.359,0 153.957,33.247 155,75 L155,80 L0,80 L0,75 L0,75 z" fill="#70"/>
    <path d="M28.304,80 C14.854,80 3.95,69.264 3.95,56.021 C4.436,43.329 12.225,34.895 24.671,32.396 C26.139,23.372 33.65,17.557 42.708,17.106 C44.795,17.21 43.969,17.076 45.209,17.326 C52.083,6.639 63.781,0.656 76.496,0.339 C91.233,0.41 104.8,9.158 110.55,22.548 C114.36,21.783 112.413,22.029 116.392,21.832 C132.707,21.832 145.932,34.853 145.932,50.916 C145.932,66.979 132.707,80 116.392,80 L116.235,79.992 L116.235,80 L28.304,80 z" fill="#707070"/>
    <path d="M49.021,79.913 C49.053,79.125 49.069,77.885 49.068,76.786 C49.069,69.644 47.817,64.376 45.146,61.509 C43.766,61.226 42.178,60.626 41.291,60.111 C39.92,58.236 35.7,49.146 35.699,44.016 C35.7,39.197 38.931,35.993 44.4,35.993 C46.211,35.993 49.983,36.613 51.698,37.082 C52.63,34.942 54.715,33.557 58.383,33.557 C62.565,33.557 69.758,35.713 69.757,37.851 C69.758,38.367 69.348,38.637 68.924,38.637 C68.594,38.637 66.709,38.176 64.693,38.176 C61.607,38.176 59.877,39.687 59.876,44.074 C59.877,54.197 63.909,64.481 70.087,64.481 C72.596,64.481 75.055,63.07 75.054,58.471 C73.789,58.348 70.228,57.553 68.79,56.269 L74.257,36.104 C71.705,35.048 69.906,32.526 69.905,29.581 C69.906,26.313 72.119,23.563 75.122,22.763 C75.123,22.548 75.16,22.485 75.191,22.349 C75.221,22.217 76.121,18.07 76.12,17.865 C75.916,17.865 71.686,18.766 71.55,18.797 C71.417,18.828 71.337,18.867 71.122,18.867 C70.315,18.867 69.66,17.801 69.66,17.052 C69.66,16.305 70.315,15.24 71.122,15.24 C71.337,15.24 71.417,15.277 71.55,15.309 C71.686,15.338 75.916,16.244 76.12,16.244 C76.121,16.036 75.221,12.217 75.191,12.083 C75.16,11.947 75.123,11.867 75.122,11.651 C75.123,10.839 76.184,10.182 76.929,10.182 C77.674,10.182 78.738,10.839 78.737,11.651 C78.738,11.867 78.701,11.947 78.669,12.083 C78.639,12.217 77.738,16.036 77.737,16.244 C77.945,16.244 82.174,15.338 82.308,15.309 C82.445,15.277 82.524,15.24 82.737,15.24 C83.547,15.24 84.201,16.305 84.201,17.052 C84.201,17.801 83.547,18.867 82.737,18.867 C82.524,18.867 82.445,18.828 82.308,18.797 C82.174,18.766 77.945,17.865 77.737,17.865 C77.738,18.07 78.639,22.217 78.669,22.349 C78.701,22.485 78.738,22.548 78.737,22.763 C81.742,23.563 83.955,26.313 83.954,29.581 C83.955,32.526 82.156,35.048 79.601,36.104 L85.069,56.269 C83.633,57.553 80.072,58.348 78.806,58.471 C78.807,63.07 81.266,64.481 83.771,64.481 C89.953,64.481 93.985,54.197 93.984,44.074 C93.985,39.687 92.254,38.176 89.167,38.176 C87.152,38.176 85.268,38.637 84.938,38.637 C84.514,38.637 84.104,38.367 84.104,37.851 C84.104,35.713 91.297,33.557 95.479,33.557 C99.147,33.557 101.231,34.942 102.161,37.082 C103.879,36.613 107.651,35.993 109.46,35.993 C114.93,35.993 118.16,39.197 118.16,44.016 C118.16,49.146 113.942,58.236 112.569,60.111 C111.684,60.626 110.094,61.226 108.715,61.509 C106.043,64.376 104.793,69.644 104.792,76.786 C104.793,77.885 104.807,79.125 104.84,79.913 L49.021,79.913 z M48.918,39.493 C45.912,39.493 43.933,40.409 43.933,44.689 C43.933,47.226 48.826,65.261 56.078,65.26 C58.829,65.261 59.979,63.873 59.979,61.026 C59.979,60.368 59.845,59.814 59.447,59.193 C58.159,58.948 56.192,58.197 55.144,57.395 C53.406,54.224 51.013,47.787 51.013,41.748 C51.013,40.989 51.047,40.405 51.13,39.709 C50.298,39.578 49.308,39.493 48.918,39.493 z M104.94,39.493 C104.552,39.493 103.559,39.578 102.729,39.709 C102.811,40.406 102.846,40.99 102.846,41.748 C102.846,47.787 100.454,54.224 98.716,57.395 C97.667,58.197 95.702,58.948 94.413,59.193 C94.014,59.814 93.88,60.368 93.88,61.026 C93.88,63.874 95.03,65.26 97.782,65.26 C105.034,65.26 109.927,47.227 109.927,44.688 C109.927,40.409 107.948,39.493 104.94,39.493 z" fill="#FFFFFF"/>
  </g>
  <style>
    @keyframes fill {
      0%, 100% { fill: #707070; }
      90% { fill: #000000; }

    }

    #bue { animation: n 200s infinite linear; }

    #bue { animation-name: fill; }
  </style>
</svg>
