<?xml version="1.0" encoding="utf-8"?>
<svg version="1.1" x="0" y="0" width="310px" height="160px" viewBox="0 0 310 160" xmlns="http://www.w3.org/2000/svg">
  <path id="bue" d="M 0.02 150 C 0.192 64.384 72.778 0 150.322 0 C 237.04 0 308.102 66.494 310.02 150 L 310 160 L 0 160 L 0.02 150 L 0.02 150 Z" fill="#70"/>
  <path d="M 56.531 160 C 29.406 160 7.46 138.406 7.513 111.769 C 8.545 86.24 24.287 69.276 49.398 64.25 C 52.395 46.099 67.565 34.403 85.835 33.496 C 90.044 33.705 88.379 33.435 90.878 33.938 C 104.784 12.443 128.401 0.408 154.045 -0.229 C 183.766 -0.086 211.092 17.509 222.634 44.442 C 230.321 42.903 226.393 43.398 234.418 43.002 C 267.322 43.002 293.941 69.192 293.875 101.501 C 293.811 133.81 267.086 160 234.182 160 L 233.866 159.984 L 233.866 160 L 56.531 160 Z" fill="#707070" style=""/>
  <path d="M 98.043 160 C 98.11 158.418 98.147 155.928 98.149 153.722 C 98.18 139.382 95.697 128.806 90.367 123.05 C 87.608 122.482 84.434 121.277 82.662 120.244 C 79.928 116.479 71.524 98.228 71.543 87.929 C 71.564 78.254 78.039 71.821 88.977 71.821 C 92.599 71.821 100.141 73.066 103.569 74.007 C 105.441 69.712 109.617 66.93 116.953 66.93 C 125.317 66.93 139.694 71.259 139.684 75.552 C 139.684 76.587 138.863 77.13 138.015 77.13 C 137.355 77.13 133.586 76.204 129.554 76.204 C 123.382 76.204 119.916 79.238 119.897 88.045 C 119.858 108.37 127.881 129.017 140.237 129.017 C 145.255 129.017 150.178 126.184 150.195 116.951 C 147.665 116.704 140.547 115.107 137.676 112.529 L 148.691 72.045 C 143.591 69.924 140.003 64.861 140.013 58.948 C 140.028 52.386 144.465 46.865 150.474 45.259 C 150.477 44.827 150.551 44.701 150.614 44.428 C 150.675 44.163 152.491 35.837 152.49 35.425 C 152.082 35.425 143.618 37.234 143.346 37.296 C 143.08 37.359 142.92 37.437 142.49 37.437 C 140.876 37.437 139.57 35.296 139.573 33.793 C 139.576 32.293 140.891 30.155 142.505 30.155 C 142.935 30.155 143.094 30.229 143.36 30.293 C 143.632 30.352 152.089 32.171 152.497 32.171 C 152.499 31.753 150.715 24.086 150.655 23.817 C 150.594 23.543 150.52 23.383 150.519 22.949 C 150.524 21.32 152.649 20 154.139 20 C 155.629 20 157.754 21.32 157.749 22.949 C 157.75 23.383 157.676 23.543 157.611 23.817 C 157.551 24.086 155.733 31.753 155.731 32.171 C 156.147 32.171 164.608 30.352 164.876 30.293 C 165.15 30.229 165.309 30.155 165.735 30.155 C 167.355 30.155 168.658 32.293 168.655 33.793 C 168.652 35.296 167.34 37.437 165.72 37.437 C 165.294 37.437 165.136 37.359 164.862 37.296 C 164.594 37.234 156.14 35.425 155.724 35.425 C 155.725 35.837 157.511 44.163 157.57 44.428 C 157.633 44.701 157.707 44.827 157.704 45.259 C 163.711 46.865 168.126 52.386 168.111 58.948 C 168.101 64.861 164.493 69.924 159.379 72.045 L 170.234 112.529 C 167.357 115.107 160.231 116.704 157.699 116.951 C 157.682 126.184 162.595 129.017 167.605 129.017 C 179.969 129.017 188.074 108.37 188.113 88.045 C 188.132 79.238 184.676 76.204 178.502 76.204 C 174.472 76.204 170.703 77.13 170.043 77.13 C 169.195 77.13 168.376 76.587 168.378 75.552 C 168.386 71.259 182.781 66.93 191.145 66.93 C 198.481 66.93 202.643 69.712 204.495 74.007 C 207.933 73.066 215.479 71.821 219.097 71.821 C 230.037 71.821 236.484 78.254 236.465 87.929 C 236.444 98.228 227.972 116.479 225.218 120.244 C 223.446 121.277 220.264 122.482 217.505 123.05 C 212.149 128.806 209.628 139.382 209.597 153.722 C 209.595 155.928 209.618 158.418 209.681 160 L 98.043 160 Z M 97.999 78.848 C 91.987 78.848 88.025 80.687 88.008 89.281 C 87.998 94.374 97.712 130.583 112.216 130.581 C 117.718 130.583 120.023 127.797 120.035 122.08 C 120.037 120.76 119.772 119.647 118.978 118.401 C 116.403 117.909 112.472 116.401 110.379 114.79 C 106.916 108.424 102.156 95.5 102.18 83.375 C 102.183 81.852 102.253 80.679 102.422 79.282 C 100.759 79.018 98.779 78.848 97.999 78.848 Z M 210.043 78.848 C 209.267 78.848 207.281 79.018 205.62 79.282 C 205.781 80.681 205.849 81.854 205.846 83.375 C 205.822 95.5 201.012 108.424 197.523 114.79 C 195.422 116.401 191.489 117.909 188.91 118.401 C 188.11 119.647 187.839 120.76 187.837 122.08 C 187.825 127.799 190.12 130.581 195.624 130.581 C 210.128 130.581 219.986 94.376 219.996 89.279 C 220.013 80.687 216.059 78.848 210.043 78.848 Z" fill="#FFFFFF" style=""/>
  <style>
    @keyframes fill {
      0%, 100% { fill: #707070; }
      20% { fill: ##707070;; }
      40% { fill: #FFFFFF;}
      60% { fill: #707070; }
      80% { fill: #000000; }

    }

    #bue { animation: n 200s infinite linear; }

    #bue { animation-name: fill; }
  </style>
</svg>