<?xml version="1.0" encoding="UTF-8"?><svg xmlns="http://www.w3.org/2000/svg" xmlns:xlink="http://www.w3.org/1999/xlink" fill-opacity="1" color-rendering="auto" color-interpolation="auto" text-rendering="auto" stroke="black" stroke-linecap="square" width="588" stroke-miterlimit="10" shape-rendering="auto" stroke-opacity="1" fill="black" stroke-dasharray="none" font-weight="normal" stroke-width="1" height="533" font-family="'Dialog'" font-style="normal" stroke-linejoin="miter" font-size="12px" stroke-dashoffset="0" image-rendering="auto">
  <!--Generated by ySVG 2.5-->
  <defs id="genericDefs"/>
  <g>
    <defs id="defs1">
      <clipPath clipPathUnits="userSpaceOnUse" id="clipPath1">
        <path d="M0 0 L588 0 L588 533 L0 533 L0 0 Z"/>
      </clipPath>
      <clipPath clipPathUnits="userSpaceOnUse" id="clipPath2">
        <path d="M454 634 L1042 634 L1042 1167 L454 1167 L454 634 Z"/>
      </clipPath>
    </defs>
    <g fill="rgb(153,204,0)" text-rendering="geometricPrecision" shape-rendering="geometricPrecision" transform="matrix(1,0,0,1,-454,-634)" stroke="rgb(153,204,0)">
      <rect x="779.6202" y="987.188" clip-path="url(#clipPath2)" width="229.3221" rx="4" ry="4" height="118.8521" stroke="none"/>
    </g>
    <g text-rendering="geometricPrecision" stroke-miterlimit="1.45" shape-rendering="geometricPrecision" transform="matrix(1,0,0,1,-454,-634)" stroke-linecap="butt">
      <rect x="779.6202" y="987.188" clip-path="url(#clipPath2)" fill="none" width="229.3221" rx="4" ry="4" height="118.8521"/>
      <text x="785.6202" xml:space="preserve" y="1004.612" clip-path="url(#clipPath2)" font-family="'Helvetica Neue'" stroke="none">Data Fabric</text>
      <text x="785.6202" xml:space="preserve" y="1018.592" clip-path="url(#clipPath2)" font-family="'Helvetica Neue'" stroke="none">Access Control</text>
    </g>
    <g fill="rgb(153,204,255)" text-rendering="geometricPrecision" shape-rendering="geometricPrecision" transform="matrix(1,0,0,1,-454,-634)" stroke="rgb(153,204,255)">
      <rect x="790.6994" y="1026.2694" clip-path="url(#clipPath2)" width="153.52" rx="4" ry="4" height="70.0411" stroke="none"/>
    </g>
    <g text-rendering="geometricPrecision" stroke-miterlimit="1.45" shape-rendering="geometricPrecision" transform="matrix(1,0,0,1,-454,-634)" stroke-linecap="butt">
      <rect x="790.6994" y="1026.2694" clip-path="url(#clipPath2)" fill="none" width="153.52" rx="4" ry="4" height="70.0411"/>
      <text x="796.6994" xml:space="preserve" y="1043.6935" clip-path="url(#clipPath2)" font-family="'Helvetica Neue'" stroke="none">Volume</text>
    </g>
    <g fill="rgb(153,204,0)" text-rendering="geometricPrecision" shape-rendering="geometricPrecision" transform="matrix(1,0,0,1,-454,-634)" stroke="rgb(153,204,0)">
      <rect x="727.3824" y="800.7447" clip-path="url(#clipPath2)" width="281.5599" rx="4" ry="4" height="112.7813" stroke="none"/>
    </g>
    <g text-rendering="geometricPrecision" stroke-miterlimit="1.45" shape-rendering="geometricPrecision" transform="matrix(1,0,0,1,-454,-634)" stroke-linecap="butt">
      <rect x="727.3824" y="800.7447" clip-path="url(#clipPath2)" fill="none" width="281.5599" rx="4" ry="4" height="112.7813"/>
      <text x="733.3824" xml:space="preserve" y="818.1687" clip-path="url(#clipPath2)" font-family="'Helvetica Neue'" stroke="none">Application Fabric</text>
      <text x="733.3824" xml:space="preserve" y="832.1487" clip-path="url(#clipPath2)" font-family="'Helvetica Neue'" stroke="none">Access Control</text>
    </g>
    <g fill="rgb(153,204,0)" text-rendering="geometricPrecision" shape-rendering="geometricPrecision" transform="matrix(1,0,0,1,-454,-634)" stroke="rgb(153,204,0)">
      <rect x="727.3824" y="743.636" clip-path="url(#clipPath2)" width="281.5599" rx="4" ry="4" height="41.648" stroke="none"/>
    </g>
    <g text-rendering="geometricPrecision" stroke-miterlimit="1.45" shape-rendering="geometricPrecision" transform="matrix(1,0,0,1,-454,-634)" stroke-linecap="butt">
      <rect x="727.3824" y="743.636" clip-path="url(#clipPath2)" fill="none" width="281.5599" rx="4" ry="4" height="41.648"/>
      <text x="733.3824" xml:space="preserve" y="761.06" clip-path="url(#clipPath2)" font-family="'Helvetica Neue'" stroke="none">Application Service Fabric</text>
      <text x="733.3824" xml:space="preserve" y="775.04" clip-path="url(#clipPath2)" font-family="'Helvetica Neue'" stroke="none">Access Control</text>
    </g>
    <g fill="silver" text-rendering="geometricPrecision" shape-rendering="geometricPrecision" transform="matrix(1,0,0,1,-454,-634)" stroke="silver">
      <rect x="561.1501" y="800.7447" clip-path="url(#clipPath2)" width="153.52" rx="4" ry="4" height="112.7813" stroke="none"/>
    </g>
    <g text-rendering="geometricPrecision" stroke-miterlimit="1.45" shape-rendering="geometricPrecision" transform="matrix(1,0,0,1,-454,-634)" stroke-linecap="butt">
      <rect x="561.1501" y="800.7447" clip-path="url(#clipPath2)" fill="none" width="153.52" rx="4" ry="4" height="112.7813"/>
      <text x="567.1501" xml:space="preserve" y="818.1687" clip-path="url(#clipPath2)" font-family="'Helvetica Neue'" stroke="none">Platform Applications </text>
      <text x="588.7141" xml:space="preserve" y="832.1487" clip-path="url(#clipPath2)" font-family="'Helvetica Neue'" stroke="none">(middleware?)</text>
    </g>
    <g fill="rgb(255,255,153)" text-rendering="geometricPrecision" shape-rendering="geometricPrecision" transform="matrix(1,0,0,1,-454,-634)" stroke="rgb(255,255,153)">
      <rect x="477.279" y="692.4555" clip-path="url(#clipPath2)" width="148.6305" rx="4" ry="4" height="30.1405" stroke="none"/>
    </g>
    <g text-rendering="geometricPrecision" stroke-miterlimit="1.45" shape-rendering="geometricPrecision" transform="matrix(1,0,0,1,-454,-634)" stroke-linecap="butt">
      <rect x="477.279" y="692.4555" clip-path="url(#clipPath2)" fill="none" width="148.6305" rx="4" ry="4" height="30.1405"/>
      <text x="483.279" xml:space="preserve" y="709.8795" clip-path="url(#clipPath2)" font-family="'Helvetica Neue'" stroke="none">Application DevOps</text>
    </g>
    <g fill="rgb(153,204,255)" text-rendering="geometricPrecision" shape-rendering="geometricPrecision" transform="matrix(1,0,0,1,-454,-634)" stroke="rgb(153,204,255)">
      <rect x="867.5664" y="1054.7699" clip-path="url(#clipPath2)" width="53.4295" rx="4" ry="4" height="30.1405" stroke="none"/>
    </g>
    <g text-rendering="geometricPrecision" stroke-miterlimit="1.45" shape-rendering="geometricPrecision" transform="matrix(1,0,0,1,-454,-634)" stroke-linecap="butt">
      <rect x="867.5664" y="1054.7699" clip-path="url(#clipPath2)" fill="none" width="53.4295" rx="4" ry="4" height="30.1405"/>
      <text x="873.5664" xml:space="preserve" y="1072.1938" clip-path="url(#clipPath2)" font-family="'Helvetica Neue'" stroke="none">Dataset</text>
    </g>
    <g fill="rgb(153,204,0)" text-rendering="geometricPrecision" shape-rendering="geometricPrecision" transform="matrix(1,0,0,1,-454,-634)" stroke="rgb(153,204,0)">
      <rect x="561.1501" y="928.9867" clip-path="url(#clipPath2)" width="447.7921" rx="4" ry="4" height="41.648" stroke="none"/>
    </g>
    <g text-rendering="geometricPrecision" stroke-miterlimit="1.45" shape-rendering="geometricPrecision" transform="matrix(1,0,0,1,-454,-634)" stroke-linecap="butt">
      <rect x="561.1501" y="928.9867" clip-path="url(#clipPath2)" fill="none" width="447.7921" rx="4" ry="4" height="41.648"/>
      <text x="567.1501" xml:space="preserve" y="946.4107" clip-path="url(#clipPath2)" font-family="'Helvetica Neue'" stroke="none">Platform API</text>
      <text x="567.1501" xml:space="preserve" y="960.3907" clip-path="url(#clipPath2)" font-family="'Helvetica Neue'" stroke="none">Access Control</text>
    </g>
    <g fill="rgb(153,204,255)" text-rendering="geometricPrecision" shape-rendering="geometricPrecision" transform="matrix(1,0,0,1,-454,-634)" stroke="rgb(153,204,255)">
      <rect x="744.6701" y="844.6667" clip-path="url(#clipPath2)" width="221.2882" rx="4" ry="4" height="54.32" stroke="none"/>
    </g>
    <g text-rendering="geometricPrecision" stroke-miterlimit="1.45" shape-rendering="geometricPrecision" transform="matrix(1,0,0,1,-454,-634)" stroke-linecap="butt">
      <rect x="744.6701" y="844.6667" clip-path="url(#clipPath2)" fill="none" width="221.2882" rx="4" ry="4" height="54.32"/>
      <text x="750.6701" xml:space="preserve" y="862.0907" clip-path="url(#clipPath2)" font-family="'Helvetica Neue'" stroke="none">App</text>
    </g>
    <g fill="silver" text-rendering="geometricPrecision" shape-rendering="geometricPrecision" transform="matrix(1,0,0,1,-454,-634)" stroke="silver">
      <rect x="659.2773" y="986.5668" clip-path="url(#clipPath2)" width="112.6328" rx="4" ry="4" height="119.4733" stroke="none"/>
    </g>
    <g text-rendering="geometricPrecision" stroke-miterlimit="1.45" shape-rendering="geometricPrecision" transform="matrix(1,0,0,1,-454,-634)" stroke-linecap="butt">
      <rect x="659.2773" y="986.5668" clip-path="url(#clipPath2)" fill="none" width="112.6328" rx="4" ry="4" height="119.4733"/>
      <text x="665.2773" xml:space="preserve" y="1003.9908" clip-path="url(#clipPath2)" font-family="'Helvetica Neue'" stroke="none">Directory/Registry </text>
      <text x="665.2773" xml:space="preserve" y="1017.9708" clip-path="url(#clipPath2)" font-family="'Helvetica Neue'" stroke="none">Access Control</text>
    </g>
    <g fill="rgb(153,204,0)" text-rendering="geometricPrecision" shape-rendering="geometricPrecision" transform="matrix(1,0,0,1,-454,-634)" stroke="rgb(153,204,0)">
      <rect x="561.1501" y="743.636" clip-path="url(#clipPath2)" width="153.52" rx="4" ry="4" height="41.648" stroke="none"/>
    </g>
    <g text-rendering="geometricPrecision" stroke-miterlimit="1.45" shape-rendering="geometricPrecision" transform="matrix(1,0,0,1,-454,-634)" stroke-linecap="butt">
      <rect x="561.1501" y="743.636" clip-path="url(#clipPath2)" fill="none" width="153.52" rx="4" ry="4" height="41.648"/>
      <text x="567.1501" xml:space="preserve" y="761.06" clip-path="url(#clipPath2)" font-family="'Helvetica Neue'" stroke="none">Platform Services</text>
      <text x="567.1501" xml:space="preserve" y="775.04" clip-path="url(#clipPath2)" font-family="'Helvetica Neue'" stroke="none">Access Control</text>
    </g>
    <g fill="silver" text-rendering="geometricPrecision" shape-rendering="geometricPrecision" transform="matrix(1,0,0,1,-454,-634)" stroke="silver">
      <rect x="561.1501" y="986.0954" clip-path="url(#clipPath2)" width="90.4172" rx="4" ry="4" height="119.9446" stroke="none"/>
    </g>
    <g text-rendering="geometricPrecision" stroke-miterlimit="1.45" shape-rendering="geometricPrecision" transform="matrix(1,0,0,1,-454,-634)" stroke-linecap="butt">
      <rect x="561.1501" y="986.0954" clip-path="url(#clipPath2)" fill="none" width="90.4172" rx="4" ry="4" height="119.9446"/>
      <text x="567.1501" xml:space="preserve" y="1003.5195" clip-path="url(#clipPath2)" font-family="'Helvetica Neue'" stroke="none">Repository </text>
      <text x="567.1501" xml:space="preserve" y="1017.4995" clip-path="url(#clipPath2)" font-family="'Helvetica Neue'" stroke="none">Access Control</text>
      <rect x="477.279" y="743.636" clip-path="url(#clipPath2)" fill="none" width="71.1589" stroke-dasharray="6,2" rx="4" ry="4" height="362.4041"/>
      <text x="483.279" xml:space="preserve" y="761.06" clip-path="url(#clipPath2)" font-family="'Helvetica Neue'" stroke="none">Toolchain</text>
    </g>
    <g fill="rgb(255,255,153)" text-rendering="geometricPrecision" shape-rendering="geometricPrecision" transform="matrix(1,0,0,1,-454,-634)" stroke="rgb(255,255,153)">
      <rect x="637.7134" y="692.4555" clip-path="url(#clipPath2)" width="185.7666" rx="4" ry="4" height="30.1405" stroke="none"/>
    </g>
    <g text-rendering="geometricPrecision" stroke-miterlimit="1.45" shape-rendering="geometricPrecision" transform="matrix(1,0,0,1,-454,-634)" stroke-linecap="butt">
      <rect x="637.7134" y="692.4555" clip-path="url(#clipPath2)" fill="none" width="185.7666" rx="4" ry="4" height="30.1405"/>
      <text x="643.7134" xml:space="preserve" y="709.8795" clip-path="url(#clipPath2)" font-family="'Helvetica Neue'" stroke="none">(Platform) Service Management</text>
    </g>
    <g fill="rgb(255,255,153)" text-rendering="geometricPrecision" shape-rendering="geometricPrecision" transform="matrix(1,0,0,1,-454,-634)" stroke="rgb(255,255,153)">
      <rect x="637.7134" y="649.8035" clip-path="url(#clipPath2)" width="180.76" rx="4" ry="4" height="30.1405" stroke="none"/>
    </g>
    <g text-rendering="geometricPrecision" stroke-miterlimit="1.45" shape-rendering="geometricPrecision" transform="matrix(1,0,0,1,-454,-634)" stroke-linecap="butt">
      <rect x="637.7134" y="649.8035" clip-path="url(#clipPath2)" fill="none" width="180.76" rx="4" ry="4" height="30.1405"/>
      <text x="643.7134" xml:space="preserve" y="667.2275" clip-path="url(#clipPath2)" font-family="'Helvetica Neue'" stroke="none">General Management</text>
    </g>
    <g fill="silver" text-rendering="geometricPrecision" shape-rendering="geometricPrecision" transform="matrix(1,0,0,1,-454,-634)" stroke="silver">
      <rect x="469.4209" y="1121.5008" clip-path="url(#clipPath2)" width="526.5374" rx="4" ry="4" height="30.1405" stroke="none"/>
    </g>
    <g text-rendering="geometricPrecision" stroke-miterlimit="1.45" shape-rendering="geometricPrecision" transform="matrix(1,0,0,1,-454,-634)" stroke-linecap="butt">
      <rect x="469.4209" y="1121.5008" clip-path="url(#clipPath2)" fill="none" width="526.5374" rx="4" ry="4" height="30.1405"/>
      <text x="475.4209" xml:space="preserve" y="1138.9248" clip-path="url(#clipPath2)" font-family="'Helvetica Neue'" stroke="none">Physical Infrastructure</text>
    </g>
    <g fill="rgb(153,204,255)" text-rendering="geometricPrecision" shape-rendering="geometricPrecision" transform="matrix(1,0,0,1,-454,-634)" stroke="rgb(153,204,255)">
      <rect x="891.3727" y="749.3898" clip-path="url(#clipPath2)" width="83.0328" rx="4" ry="4" height="30.1405" stroke="none"/>
    </g>
    <g text-rendering="geometricPrecision" stroke-miterlimit="1.45" shape-rendering="geometricPrecision" transform="matrix(1,0,0,1,-454,-634)" stroke-linecap="butt">
      <rect x="891.3727" y="749.3898" clip-path="url(#clipPath2)" fill="none" width="83.0328" rx="4" ry="4" height="30.1405"/>
      <text x="897.3727" xml:space="preserve" y="766.8138" clip-path="url(#clipPath2)" font-family="'Helvetica Neue'" stroke="none">App Service</text>
    </g>
    <g fill="white" text-rendering="geometricPrecision" shape-rendering="geometricPrecision" transform="matrix(1,0,0,1,-454,-634)" stroke="white">
      <rect x="995.9583" y="738.92" clip-path="url(#clipPath2)" width="30.4957" rx="4" ry="4" height="412.7213" stroke="none"/>
      <rect stroke-linecap="butt" x="995.9583" y="738.92" clip-path="url(#clipPath2)" fill="none" width="30.4957" rx="4" ry="4" height="412.7213" stroke-width="6" stroke-miterlimit="1.45"/>
      <rect x="572.48" y="1027.8872" clip-path="url(#clipPath2)" fill="rgb(153,204,255)" width="53.4295" rx="4" ry="4" height="30.1405" stroke="none"/>
    </g>
    <g text-rendering="geometricPrecision" stroke-miterlimit="1.45" shape-rendering="geometricPrecision" transform="matrix(1,0,0,1,-454,-634)" stroke-linecap="butt">
      <rect x="572.48" y="1027.8872" clip-path="url(#clipPath2)" fill="none" width="53.4295" rx="4" ry="4" height="30.1405"/>
      <text x="578.48" xml:space="preserve" y="1045.3112" clip-path="url(#clipPath2)" font-family="'Helvetica Neue'" stroke="none">Code</text>
    </g>
    <g fill="rgb(153,204,255)" text-rendering="geometricPrecision" shape-rendering="geometricPrecision" transform="matrix(1,0,0,1,-454,-634)" stroke="rgb(153,204,255)">
      <rect x="670.3851" y="1067.3659" clip-path="url(#clipPath2)" width="90.4172" rx="4" ry="4" height="30.1405" stroke="none"/>
    </g>
    <g text-rendering="geometricPrecision" stroke-miterlimit="1.45" shape-rendering="geometricPrecision" transform="matrix(1,0,0,1,-454,-634)" stroke-linecap="butt">
      <rect x="670.3851" y="1067.3659" clip-path="url(#clipPath2)" fill="none" width="90.4172" rx="4" ry="4" height="30.1405"/>
      <text x="676.3851" xml:space="preserve" y="1084.7899" clip-path="url(#clipPath2)" font-family="'Helvetica Neue'" stroke="none">Inventory</text>
    </g>
    <g fill="rgb(153,204,255)" text-rendering="geometricPrecision" shape-rendering="geometricPrecision" transform="matrix(1,0,0,1,-454,-634)" stroke="rgb(153,204,255)">
      <rect x="793.0828" y="856.7565" clip-path="url(#clipPath2)" width="71.1589" rx="4" ry="4" height="30.1405" stroke="none"/>
    </g>
    <g text-rendering="geometricPrecision" stroke-miterlimit="1.45" shape-rendering="geometricPrecision" transform="matrix(1,0,0,1,-454,-634)" stroke-linecap="butt">
      <rect x="793.0828" y="856.7565" clip-path="url(#clipPath2)" fill="none" width="71.1589" rx="4" ry="4" height="30.1405"/>
      <text x="799.0828" xml:space="preserve" y="874.1805" clip-path="url(#clipPath2)" font-family="'Helvetica Neue'" stroke="none">Container</text>
    </g>
    <g fill="rgb(153,204,255)" text-rendering="geometricPrecision" shape-rendering="geometricPrecision" transform="matrix(1,0,0,1,-454,-634)" stroke="rgb(153,204,255)">
      <rect x="879.9915" y="856.7565" clip-path="url(#clipPath2)" width="71.1589" rx="4" ry="4" height="30.1405" stroke="none"/>
    </g>
    <g text-rendering="geometricPrecision" stroke-miterlimit="1.45" shape-rendering="geometricPrecision" transform="matrix(1,0,0,1,-454,-634)" stroke-linecap="butt">
      <rect x="879.9915" y="856.7565" clip-path="url(#clipPath2)" fill="none" width="71.1589" rx="4" ry="4" height="30.1405"/>
      <text x="885.9915" xml:space="preserve" y="874.1805" clip-path="url(#clipPath2)" font-family="'Helvetica Neue'" stroke="none">Container</text>
    </g>
    <g fill="rgb(153,204,255)" text-rendering="geometricPrecision" shape-rendering="geometricPrecision" transform="matrix(1,0,0,1,-454,-634)" stroke="rgb(153,204,255)">
      <rect x="572.48" y="1069.679" clip-path="url(#clipPath2)" width="53.4295" rx="4" ry="4" height="30.1405" stroke="none"/>
    </g>
    <g text-rendering="geometricPrecision" stroke-miterlimit="1.45" shape-rendering="geometricPrecision" transform="matrix(1,0,0,1,-454,-634)" stroke-linecap="butt">
      <rect x="572.48" y="1069.679" clip-path="url(#clipPath2)" fill="none" width="53.4295" rx="4" ry="4" height="30.1405"/>
      <text x="578.48" xml:space="preserve" y="1087.1029" clip-path="url(#clipPath2)" font-family="'Helvetica Neue'" stroke="none">Image</text>
    </g>
    <g fill="rgb(153,204,255)" text-rendering="geometricPrecision" shape-rendering="geometricPrecision" transform="matrix(1,0,0,1,-454,-634)" stroke="rgb(153,204,255)">
      <rect x="670.3851" y="1031.2332" clip-path="url(#clipPath2)" width="90.4172" rx="4" ry="4" height="30.1405" stroke="none"/>
    </g>
    <g text-rendering="geometricPrecision" stroke-miterlimit="1.45" shape-rendering="geometricPrecision" transform="matrix(1,0,0,1,-454,-634)" stroke-linecap="butt">
      <rect x="670.3851" y="1031.2332" clip-path="url(#clipPath2)" fill="none" width="90.4172" rx="4" ry="4" height="30.1405"/>
      <text x="676.3851" xml:space="preserve" y="1048.6572" clip-path="url(#clipPath2)" font-family="'Helvetica Neue'" stroke="none">Rights</text>
    </g>
    <g fill="rgb(153,204,255)" text-rendering="geometricPrecision" shape-rendering="geometricPrecision" transform="matrix(1,0,0,1,-454,-634)" stroke="rgb(153,204,255)">
      <rect x="802.0996" y="1054.7699" clip-path="url(#clipPath2)" width="53.4295" rx="4" ry="4" height="30.1405" stroke="none"/>
    </g>
    <g text-rendering="geometricPrecision" stroke-miterlimit="1.45" shape-rendering="geometricPrecision" transform="matrix(1,0,0,1,-454,-634)" stroke-linecap="butt">
      <rect x="802.0996" y="1054.7699" clip-path="url(#clipPath2)" fill="none" width="53.4295" rx="4" ry="4" height="30.1405"/>
      <text x="808.0996" xml:space="preserve" y="1072.1938" clip-path="url(#clipPath2)" font-family="'Helvetica Neue'" stroke="none">Dataset</text>
    </g>
  </g>
</svg>
