<?xml version="1.0" encoding="UTF-8"?><svg xmlns="http://www.w3.org/2000/svg" xmlns:xlink="http://www.w3.org/1999/xlink" fill-opacity="1" color-rendering="auto" color-interpolation="auto" text-rendering="auto" stroke="black" stroke-linecap="square" width="783" stroke-miterlimit="10" shape-rendering="auto" stroke-opacity="1" fill="black" stroke-dasharray="none" font-weight="normal" stroke-width="1" height="81" font-family="'Dialog'" font-style="normal" stroke-linejoin="miter" font-size="12px" stroke-dashoffset="0" image-rendering="auto">
  <!--Generated by ySVG 2.5-->
  <defs id="genericDefs"/>
  <g>
    <defs id="defs1">
      <clipPath clipPathUnits="userSpaceOnUse" id="clipPath1">
        <path d="M0 0 L783 0 L783 81 L0 81 L0 0 Z"/>
      </clipPath>
      <clipPath clipPathUnits="userSpaceOnUse" id="clipPath2">
        <path d="M328 281 L1111 281 L1111 362 L328 362 L328 281 Z"/>
      </clipPath>
    </defs>
    <g text-rendering="geometricPrecision" stroke-miterlimit="1.45" shape-rendering="geometricPrecision" transform="matrix(1,0,0,1,-328,-281)" stroke-linecap="butt">
      <rect x="343.3002" y="296.3887" clip-path="url(#clipPath2)" fill="none" width="752.1456" rx="4" ry="4" height="49.648"/>
    </g>
    <g text-rendering="geometricPrecision" stroke-miterlimit="1.45" shape-rendering="geometricPrecision" font-family="'Helvetica Neue'" transform="matrix(1,0,0,1,-328,-281)" stroke-linecap="butt">
      <text x="349.3002" xml:space="preserve" y="313.8127" clip-path="url(#clipPath2)" stroke="none">Platform API</text>
      <text x="349.3002" xml:space="preserve" y="327.7927" clip-path="url(#clipPath2)" stroke="none">Access Control</text>
    </g>
    <g fill="rgb(153,204,0)" text-rendering="geometricPrecision" shape-rendering="geometricPrecision" transform="matrix(1,0,0,1,-328,-281)" stroke="rgb(153,204,0)">
      <rect x="806.4358" width="58.8" height="27.44" y="307.4927" clip-path="url(#clipPath2)" stroke="none"/>
    </g>
    <g text-rendering="geometricPrecision" stroke-miterlimit="1.45" shape-rendering="geometricPrecision" transform="matrix(1,0,0,1,-328,-281)" stroke-linecap="butt">
      <rect fill="none" x="806.4358" width="58.8" height="27.44" y="307.4927" clip-path="url(#clipPath2)"/>
      <text x="812.4358" xml:space="preserve" y="325.0943" clip-path="url(#clipPath2)" font-family="sans-serif" stroke="none">/table</text>
    </g>
    <g fill="rgb(153,204,0)" text-rendering="geometricPrecision" shape-rendering="geometricPrecision" transform="matrix(1,0,0,1,-328,-281)" stroke="rgb(153,204,0)">
      <rect x="881.793" width="58.8" height="27.44" y="307.4927" clip-path="url(#clipPath2)" stroke="none"/>
    </g>
    <g text-rendering="geometricPrecision" stroke-miterlimit="1.45" shape-rendering="geometricPrecision" transform="matrix(1,0,0,1,-328,-281)" stroke-linecap="butt">
      <rect fill="none" x="881.793" width="58.8" height="27.44" y="307.4927" clip-path="url(#clipPath2)"/>
      <text x="887.793" xml:space="preserve" y="325.0943" clip-path="url(#clipPath2)" font-family="sans-serif" stroke="none">/stream</text>
    </g>
    <g fill="rgb(153,204,0)" text-rendering="geometricPrecision" shape-rendering="geometricPrecision" transform="matrix(1,0,0,1,-328,-281)" stroke="rgb(153,204,0)">
      <rect x="957.1501" width="58.8" height="27.44" y="307.824" clip-path="url(#clipPath2)" stroke="none"/>
    </g>
    <g text-rendering="geometricPrecision" stroke-miterlimit="1.45" shape-rendering="geometricPrecision" transform="matrix(1,0,0,1,-328,-281)" stroke-linecap="butt">
      <rect fill="none" x="957.1501" width="58.8" height="27.44" y="307.824" clip-path="url(#clipPath2)"/>
      <text x="963.1501" xml:space="preserve" y="325.4256" clip-path="url(#clipPath2)" font-family="sans-serif" stroke="none">/file</text>
    </g>
    <g fill="rgb(153,204,0)" text-rendering="geometricPrecision" shape-rendering="geometricPrecision" transform="matrix(1,0,0,1,-328,-281)" stroke="rgb(153,204,0)">
      <rect x="685.9688" width="58.8" height="27.44" y="307.4927" clip-path="url(#clipPath2)" stroke="none"/>
    </g>
    <g text-rendering="geometricPrecision" stroke-miterlimit="1.45" shape-rendering="geometricPrecision" transform="matrix(1,0,0,1,-328,-281)" stroke-linecap="butt">
      <rect fill="none" x="685.9688" width="58.8" height="27.44" y="307.4927" clip-path="url(#clipPath2)"/>
      <text x="691.9688" xml:space="preserve" y="325.0943" clip-path="url(#clipPath2)" font-family="sans-serif" stroke="none">/log</text>
    </g>
    <g fill="rgb(153,204,0)" text-rendering="geometricPrecision" shape-rendering="geometricPrecision" transform="matrix(1,0,0,1,-328,-281)" stroke="rgb(153,204,0)">
      <rect x="565.5017" width="58.8" height="27.44" y="307.4927" clip-path="url(#clipPath2)" stroke="none"/>
    </g>
    <g text-rendering="geometricPrecision" stroke-miterlimit="1.45" shape-rendering="geometricPrecision" transform="matrix(1,0,0,1,-328,-281)" stroke-linecap="butt">
      <rect fill="none" x="565.5017" width="58.8" height="27.44" y="307.4927" clip-path="url(#clipPath2)"/>
      <text x="571.5017" xml:space="preserve" y="325.0943" clip-path="url(#clipPath2)" font-family="sans-serif" stroke="none">/ldap</text>
    </g>
    <g fill="rgb(153,204,0)" text-rendering="geometricPrecision" shape-rendering="geometricPrecision" transform="matrix(1,0,0,1,-328,-281)" stroke="rgb(153,204,0)">
      <rect x="489.4418" width="58.8" height="27.44" y="307.4927" clip-path="url(#clipPath2)" stroke="none"/>
    </g>
    <g text-rendering="geometricPrecision" stroke-miterlimit="1.45" shape-rendering="geometricPrecision" transform="matrix(1,0,0,1,-328,-281)" stroke-linecap="butt">
      <rect fill="none" x="489.4418" width="58.8" height="27.44" y="307.4927" clip-path="url(#clipPath2)"/>
      <text x="495.4418" xml:space="preserve" y="325.0943" clip-path="url(#clipPath2)" font-family="sans-serif" stroke="none">/token</text>
    </g>
    <g fill="white" text-rendering="geometricPrecision" shape-rendering="geometricPrecision" transform="matrix(1,0,0,1,-328,-281)" stroke="white">
      <rect x="1064.9501" y="296.3887" clip-path="url(#clipPath2)" width="30.4957" rx="4" ry="4" height="49.648" stroke="none"/>
      <rect stroke-linecap="butt" x="1064.9501" y="296.3887" clip-path="url(#clipPath2)" fill="none" width="30.4957" rx="4" ry="4" height="49.648" stroke-width="6" stroke-miterlimit="1.45"/>
    </g>
  </g>
</svg>
