<?xml version="1.0" encoding="UTF-8"?><svg xmlns="http://www.w3.org/2000/svg" xmlns:xlink="http://www.w3.org/1999/xlink" fill-opacity="1" color-rendering="auto" color-interpolation="auto" text-rendering="auto" stroke="black" stroke-linecap="square" width="450" stroke-miterlimit="10" shape-rendering="auto" stroke-opacity="1" fill="black" stroke-dasharray="none" font-weight="normal" stroke-width="1" height="144" font-family="'Dialog'" font-style="normal" stroke-linejoin="miter" font-size="12px" stroke-dashoffset="0" image-rendering="auto">
  <!--Generated by ySVG 2.5-->
  <defs id="genericDefs"/>
  <g>
    <defs id="defs1">
      <clipPath clipPathUnits="userSpaceOnUse" id="clipPath1">
        <path d="M0 0 L450 0 L450 144 L0 144 L0 0 Z"/>
      </clipPath>
      <clipPath clipPathUnits="userSpaceOnUse" id="clipPath2">
        <path d="M940 808 L1390 808 L1390 952 L940 952 L940 808 Z"/>
      </clipPath>
    </defs>
    <g text-rendering="geometricPrecision" stroke-miterlimit="1.45" shape-rendering="geometricPrecision" transform="matrix(1,0,0,1,-940,-808)" stroke-linecap="butt">
      <rect x="1153.342" y="824.1762" clip-path="url(#clipPath2)" fill="none" width="221.2882" rx="4" ry="4" height="112.7813"/>
    </g>
    <g text-rendering="geometricPrecision" stroke-miterlimit="1.45" shape-rendering="geometricPrecision" font-family="'Helvetica Neue'" transform="matrix(1,0,0,1,-940,-808)" stroke-linecap="butt">
      <text x="1159.3419" xml:space="preserve" y="841.6002" clip-path="url(#clipPath2)" stroke="none">Directory/Registry </text>
      <text x="1159.3419" xml:space="preserve" y="855.5801" clip-path="url(#clipPath2)" stroke="none">Access Control</text>
      <rect x="955.3002" y="823.2334" clip-path="url(#clipPath2)" fill="none" width="180.76" rx="4" ry="4" height="113.724"/>
      <text x="961.3002" xml:space="preserve" y="840.6574" clip-path="url(#clipPath2)" stroke="none">Repository </text>
      <text x="961.3002" xml:space="preserve" y="854.6375" clip-path="url(#clipPath2)" stroke="none">Access Control</text>
    </g>
    <g fill="rgb(153,204,255)" text-rendering="geometricPrecision" shape-rendering="geometricPrecision" transform="matrix(1,0,0,1,-940,-808)" stroke="rgb(153,204,255)">
      <rect x="963.0952" width="86.0581" height="27.44" y="864.7847" clip-path="url(#clipPath2)" stroke="none"/>
    </g>
    <g text-rendering="geometricPrecision" stroke-miterlimit="1.45" shape-rendering="geometricPrecision" transform="matrix(1,0,0,1,-940,-808)" stroke-linecap="butt">
      <rect fill="none" x="963.0952" width="86.0581" height="27.44" y="864.7847" clip-path="url(#clipPath2)"/>
      <text x="969.0952" xml:space="preserve" y="882.3863" clip-path="url(#clipPath2)" font-family="sans-serif" stroke="none">Source Code</text>
    </g>
    <g fill="rgb(153,204,255)" text-rendering="geometricPrecision" shape-rendering="geometricPrecision" transform="matrix(1,0,0,1,-940,-808)" stroke="rgb(153,204,255)">
      <rect x="963.0952" width="86.0581" height="27.44" y="900.42" clip-path="url(#clipPath2)" stroke="none"/>
    </g>
    <g text-rendering="geometricPrecision" stroke-miterlimit="1.45" shape-rendering="geometricPrecision" transform="matrix(1,0,0,1,-940,-808)" stroke-linecap="butt">
      <rect fill="none" x="963.0952" width="86.0581" height="27.44" y="900.42" clip-path="url(#clipPath2)"/>
      <text x="969.0952" xml:space="preserve" y="918.0215" clip-path="url(#clipPath2)" font-family="sans-serif" stroke="none">Container</text>
    </g>
    <g fill="rgb(153,204,255)" text-rendering="geometricPrecision" shape-rendering="geometricPrecision" transform="matrix(1,0,0,1,-940,-808)" stroke="rgb(153,204,255)">
      <rect x="1165.7611" width="51.6438" height="27.44" y="900.5574" clip-path="url(#clipPath2)" stroke="none"/>
    </g>
    <g text-rendering="geometricPrecision" stroke-miterlimit="1.45" shape-rendering="geometricPrecision" transform="matrix(1,0,0,1,-940,-808)" stroke-linecap="butt">
      <rect fill="none" x="1165.7611" width="51.6438" height="27.44" y="900.5574" clip-path="url(#clipPath2)"/>
      <text x="1171.7611" xml:space="preserve" y="918.159" clip-path="url(#clipPath2)" font-family="sans-serif" stroke="none">Users</text>
    </g>
    <g fill="rgb(153,204,255)" text-rendering="geometricPrecision" shape-rendering="geometricPrecision" transform="matrix(1,0,0,1,-940,-808)" stroke="rgb(153,204,255)">
      <rect x="1165.7611" width="51.6438" height="27.44" y="863.773" clip-path="url(#clipPath2)" stroke="none"/>
    </g>
    <g text-rendering="geometricPrecision" stroke-miterlimit="1.45" shape-rendering="geometricPrecision" transform="matrix(1,0,0,1,-940,-808)" stroke-linecap="butt">
      <rect fill="none" x="1165.7611" width="51.6438" height="27.44" y="863.773" clip-path="url(#clipPath2)"/>
      <text x="1171.7611" xml:space="preserve" y="881.3746" clip-path="url(#clipPath2)" font-family="sans-serif" stroke="none">Rights</text>
    </g>
    <g fill="rgb(153,204,255)" text-rendering="geometricPrecision" shape-rendering="geometricPrecision" transform="matrix(1,0,0,1,-940,-808)" stroke="rgb(153,204,255)">
      <rect x="1228.1415" width="60.1838" height="27.44" y="900.5574" clip-path="url(#clipPath2)" stroke="none"/>
    </g>
    <g text-rendering="geometricPrecision" stroke-miterlimit="1.45" shape-rendering="geometricPrecision" transform="matrix(1,0,0,1,-940,-808)" stroke-linecap="butt">
      <rect fill="none" x="1228.1415" width="60.1838" height="27.44" y="900.5574" clip-path="url(#clipPath2)"/>
      <text x="1234.1415" xml:space="preserve" y="918.159" clip-path="url(#clipPath2)" font-family="sans-serif" stroke="none">Services</text>
    </g>
    <g fill="rgb(153,204,255)" text-rendering="geometricPrecision" shape-rendering="geometricPrecision" transform="matrix(1,0,0,1,-940,-808)" stroke="rgb(153,204,255)">
      <rect x="1299.0619" width="60.1838" height="27.44" y="900.5574" clip-path="url(#clipPath2)" stroke="none"/>
    </g>
    <g text-rendering="geometricPrecision" stroke-miterlimit="1.45" shape-rendering="geometricPrecision" transform="matrix(1,0,0,1,-940,-808)" stroke-linecap="butt">
      <rect fill="none" x="1299.0619" width="60.1838" height="27.44" y="900.5574" clip-path="url(#clipPath2)"/>
      <text x="1305.0619" xml:space="preserve" y="918.159" clip-path="url(#clipPath2)" font-family="sans-serif" stroke="none">Apps</text>
    </g>
    <g fill="rgb(153,204,255)" text-rendering="geometricPrecision" shape-rendering="geometricPrecision" transform="matrix(1,0,0,1,-940,-808)" stroke="rgb(153,204,255)">
      <rect x="1228.1415" width="60.1838" height="27.44" y="863.773" clip-path="url(#clipPath2)" stroke="none"/>
    </g>
    <g text-rendering="geometricPrecision" stroke-miterlimit="1.45" shape-rendering="geometricPrecision" transform="matrix(1,0,0,1,-940,-808)" stroke-linecap="butt">
      <rect fill="none" x="1228.1415" width="60.1838" height="27.44" y="863.773" clip-path="url(#clipPath2)"/>
      <text x="1234.1415" xml:space="preserve" y="881.3746" clip-path="url(#clipPath2)" font-family="sans-serif" stroke="none">Monitor</text>
    </g>
    <g fill="rgb(153,204,255)" text-rendering="geometricPrecision" shape-rendering="geometricPrecision" transform="matrix(1,0,0,1,-940,-808)" stroke="rgb(153,204,255)">
      <rect x="1299.0619" width="60.1838" height="27.44" y="863.773" clip-path="url(#clipPath2)" stroke="none"/>
    </g>
    <g text-rendering="geometricPrecision" stroke-miterlimit="1.45" shape-rendering="geometricPrecision" transform="matrix(1,0,0,1,-940,-808)" stroke-linecap="butt">
      <rect fill="none" x="1299.0619" width="60.1838" height="27.44" y="863.773" clip-path="url(#clipPath2)"/>
      <text x="1305.0619" xml:space="preserve" y="881.3746" clip-path="url(#clipPath2)" font-family="sans-serif" stroke="none">Dataset</text>
    </g>
    <g fill="rgb(153,204,255)" text-rendering="geometricPrecision" shape-rendering="geometricPrecision" transform="matrix(1,0,0,1,-940,-808)" stroke="rgb(153,204,255)">
      <rect x="1058.0403" width="63.92" height="27.44" y="900.5574" clip-path="url(#clipPath2)" stroke="none"/>
    </g>
    <g text-rendering="geometricPrecision" stroke-miterlimit="1.45" shape-rendering="geometricPrecision" transform="matrix(1,0,0,1,-940,-808)" stroke-linecap="butt">
      <rect fill="none" x="1058.0403" width="63.92" height="27.44" y="900.5574" clip-path="url(#clipPath2)"/>
      <text x="1064.0403" xml:space="preserve" y="918.159" clip-path="url(#clipPath2)" font-family="sans-serif" stroke="none">Labels</text>
    </g>
  </g>
</svg>
